<svg width="36" height="36" viewBox="0 0 36 36" fill="none" xmlns="http://www.w3.org/2000/svg">
<g clip-path="url(#clip0_25_1082)">
<path fill-rule="evenodd" clip-rule="evenodd" d="M23.4 9.522V1.8C23.4 0.81 22.59 0 21.6 0H14.4C13.41 0 12.6 0.81 12.6 1.8V9.522C12.6 9.756 12.69 9.99 12.87 10.152L17.37 14.652C17.73 15.012 18.288 15.012 18.648 14.652L23.148 10.152C23.31 9.99 23.4 9.774 23.4 9.522ZM9.522 12.6H1.8C0.81 12.6 0 13.41 0 14.4V21.6C0 22.59 0.81 23.4 1.8 23.4H9.522C9.756 23.4 9.99 23.31 10.152 23.13L14.652 18.63C15.012 18.27 15.012 17.712 14.652 17.352L10.152 12.852C9.99 12.69 9.774 12.6 9.522 12.6ZM12.6 26.478V34.2C12.6 35.19 13.41 36 14.4 36H21.6C22.59 36 23.4 35.19 23.4 34.2V26.478C23.4 26.244 23.31 26.01 23.13 25.848L18.63 21.348C18.27 20.988 17.712 20.988 17.352 21.348L12.852 25.848C12.69 26.01 12.6 26.226 12.6 26.478ZM25.83 12.87L21.33 17.37C20.97 17.73 20.97 18.288 21.33 18.648L25.83 23.148C25.992 23.31 26.226 23.418 26.46 23.418H34.2C35.19 23.418 36 22.608 36 21.618V14.418C36 13.428 35.19 12.618 34.2 12.618H26.478C26.226 12.6 26.01 12.69 25.83 12.87Z" fill="#FBFBFB"/>
</g>
<defs>
<clipPath id="clip0_25_1082">
<rect width="36" height="36" fill="white"/>
</clipPath>
</defs>
</svg>
