<svg width="118" height="118" viewBox="0 0 118 118" fill="none" xmlns="http://www.w3.org/2000/svg">
<rect width="118" height="118" rx="2" fill="#FBFBFB"/>
<path d="M76.5 36.5H41.5C38.7386 36.5 36.5 38.7386 36.5 41.5V76.5C36.5 79.2614 38.7386 81.5 41.5 81.5H76.5C79.2614 81.5 81.5 79.2614 81.5 76.5V41.5C81.5 38.7386 79.2614 36.5 76.5 36.5Z" stroke="#D6D6D6" stroke-width="4" stroke-linecap="round" stroke-linejoin="round"/>
<path d="M50.25 54C52.3211 54 54 52.3211 54 50.25C54 48.1789 52.3211 46.5 50.25 46.5C48.1789 46.5 46.5 48.1789 46.5 50.25C46.5 52.3211 48.1789 54 50.25 54Z" stroke="#D6D6D6" stroke-width="4" stroke-linecap="round" stroke-linejoin="round"/>
<path d="M81.5 66.5L69 54L41.5 81.5" stroke="#D6D6D6" stroke-width="4" stroke-linecap="round" stroke-linejoin="round"/>
</svg>
