<svg width="418" height="120" viewBox="0 0 418 120" fill="none" xmlns="http://www.w3.org/2000/svg">
<g clip-path="url(#clip0_28_1123)">
<path d="M0 84L13.9333 90C27.8667 96 55.7333 108 83.6 104.016C111.467 99.84 139.333 80.16 167.2 66C195.067 51.84 222.933 44.16 250.8 42C278.667 39.84 306.533 44.16 334.4 39.984C362.267 36 390.133 24 418 21.984C445.867 20.16 473.733 27.84 501.6 36C529.467 44.16 557.333 51.84 585.2 62.016C613.066 72 640.933 84 668.8 93.984C696.666 104.16 724.533 111.84 752.4 102C780.266 92.16 808.133 63.84 836 63.984C863.866 63.84 891.733 92.16 919.6 105.984C947.466 120 975.333 120 1003.2 116.016C1031.07 111.84 1058.93 104.16 1086.8 104.016C1114.67 104.16 1142.53 111.84 1170.4 108C1198.27 104.16 1226.13 87.84 1254 74.016C1281.87 60 1309.73 48 1337.6 38.016C1365.47 27.84 1393.33 20.16 1421.2 32.016C1449.07 44.16 1476.93 75.84 1504.8 90C1532.67 104.16 1560.53 99.84 1588.4 84C1616.27 68.16 1644.13 39.84 1672 38.016C1699.87 36 1727.73 60 1755.6 72C1783.47 84 1811.33 84 1839.2 81.984C1867.07 80.16 1894.93 75.84 1922.8 69.984C1950.67 63.84 1978.53 56.16 1992.47 51.984L2006.4 48V-1.62814e-06H1992.47C1978.53 -1.62814e-06 1950.67 -1.62814e-06 1922.8 -1.62814e-06C1894.93 -1.62814e-06 1867.07 -1.62814e-06 1839.2 -1.62814e-06C1811.33 -1.62814e-06 1783.47 -1.62814e-06 1755.6 -1.62814e-06C1727.73 -1.62814e-06 1699.87 -1.62814e-06 1672 -1.62814e-06C1644.13 -1.62814e-06 1616.27 -1.62814e-06 1588.4 -1.62814e-06C1560.53 -1.62814e-06 1532.67 -1.62814e-06 1504.8 -1.62814e-06C1476.93 -1.62814e-06 1449.07 -1.62814e-06 1421.2 -1.62814e-06C1393.33 -1.62814e-06 1365.47 -1.62814e-06 1337.6 -1.62814e-06C1309.73 -1.62814e-06 1281.87 -1.62814e-06 1254 -1.62814e-06C1226.13 -1.62814e-06 1198.27 -1.62814e-06 1170.4 -1.62814e-06C1142.53 -1.62814e-06 1114.67 -1.62814e-06 1086.8 -1.62814e-06C1058.93 -1.62814e-06 1031.07 -1.62814e-06 1003.2 -1.62814e-06C975.333 -1.62814e-06 947.466 -1.62814e-06 919.6 -1.62814e-06C891.733 -1.62814e-06 863.866 -1.62814e-06 836 -1.62814e-06C808.133 -1.62814e-06 780.266 -1.62814e-06 752.4 -1.62814e-06C724.533 -1.62814e-06 696.666 -1.62814e-06 668.8 -1.62814e-06C640.933 -1.62814e-06 613.066 -1.62814e-06 585.2 -1.62814e-06C557.333 -1.62814e-06 529.467 -1.62814e-06 501.6 -1.62814e-06C473.733 -1.62814e-06 445.867 -1.62814e-06 418 -1.62814e-06C390.133 -1.62814e-06 362.267 -1.62814e-06 334.4 -1.62814e-06C306.533 -1.62814e-06 278.667 -1.62814e-06 250.8 -1.62814e-06C222.933 -1.62814e-06 195.067 -1.62814e-06 167.2 -1.62814e-06C139.333 -1.62814e-06 111.467 -1.62814e-06 83.6 -1.62814e-06C55.7333 -1.62814e-06 27.8667 -1.62814e-06 13.9333 -1.62814e-06H0V84Z" fill="url(#paint0_linear_28_1123)"/>
</g>
<defs>
<linearGradient id="paint0_linear_28_1123" x1="0" y1="0" x2="0" y2="118.305" gradientUnits="userSpaceOnUse">
<stop/>
<stop offset="1"/>
</linearGradient>
<clipPath id="clip0_28_1123">
<rect width="418" height="120" fill="white" transform="matrix(1 0 0 -1 0 120)"/>
</clipPath>
</defs>
</svg>
