<svg xmlns="http://www.w3.org/2000/svg" xmlns:xlink="http://www.w3.org/1999/xlink" viewBox="0 0 168.54 42.08"><defs><style>.cls-1{stroke-miterlimit:10;fill:url(#Gradiente_sem_nome_4);stroke:url(#Gradiente_sem_nome_103);}.cls-2,.cls-3{fill:#fff;}.cls-3{font-size:9.05px;font-family:BakbakOne-Regular, Bakbak One;}.cls-4{fill:none;stroke:#29a9e2;stroke-linecap:round;stroke-linejoin:round;stroke-width:1.67px;}</style><linearGradient id="Gradiente_sem_nome_4" x1="0.5" y1="21.04" x2="168.04" y2="21.04" gradientUnits="userSpaceOnUse"><stop offset="0" stop-color="#0a50a2"/><stop offset="1" stop-color="#0f74bb"/></linearGradient><linearGradient id="Gradiente_sem_nome_103" x1="168.54" y1="21.04" x2="0" y2="21.04" gradientUnits="userSpaceOnUse"><stop offset="0" stop-color="#75ccf4"/><stop offset="1" stop-color="#0f73ba"/></linearGradient></defs><g id="Camada_2" data-name="Camada 2"><g id="Camada_1-2" data-name="Camada 1"><rect class="cls-1" x="0.5" y="0.5" width="167.54" height="41.08" rx="3.59"/><rect class="cls-2" x="131.58" y="6.12" width="29.85" height="29.85" rx="1.29"/><path class="cls-2" d="M49.39,14.33,48.13,9.59h.78c.39,1.72.82,3.42.9,4h0c.13-.68.74-2.77,1-4h.69c.27,1,.88,3.28,1,3.93h0c.16-.88.77-3,1-3.93h.72l-1.36,4.74h-.78c-.28-1.08-.84-3.15-1-3.78h0c-.15.74-.72,2.73-1,3.78Z"/><path class="cls-2" d="M55.07,12.73c0,.63.33,1.12.89,1.12a.75.75,0,0,0,.78-.5h.7a1.45,1.45,0,0,1-1.5,1.07,1.59,1.59,0,0,1-1.57-1.79c0-1.05.53-1.86,1.61-1.86a1.5,1.5,0,0,1,1.52,1.67,2.71,2.71,0,0,1,0,.29Zm1.72-.47c0-.53-.26-1-.82-1s-.82.4-.88,1Z"/><path class="cls-2" d="M58.25,9.32H59v2A1.13,1.13,0,0,1,60,10.77c.9,0,1.43.73,1.43,1.75s-.53,1.9-1.52,1.9a1,1,0,0,1-1-.51c0,.16,0,.33,0,.42h-.67v-5Zm2.49,3.22c0-.71-.31-1.19-.89-1.19s-.93.46-.93,1.26.21,1.23.91,1.23S60.74,13.34,60.74,12.54Z"/><path class="cls-2" d="M62.66,13.32a.73.73,0,0,0,.8.56c.47,0,.65-.19.65-.48s-.15-.43-.77-.59c-1-.25-1.24-.56-1.24-1s.36-1,1.3-1,1.31.53,1.35,1h-.67a.64.64,0,0,0-.71-.49c-.44,0-.58.21-.58.42s.14.35.76.5c1.08.26,1.28.62,1.28,1.14s-.47,1.07-1.39,1.07S62.05,14,62,13.32Z"/><path class="cls-2" d="M65.57,9.32h.7v.78h-.7Zm0,1.53h.7v3.48h-.7Z"/><path class="cls-2" d="M66.87,10.85h.58v-1h.7v1h.75v.55h-.75v2c0,.32.08.47.39.47a1.37,1.37,0,0,0,.28,0v.51a1.69,1.69,0,0,1-.55.06c-.58,0-.82-.3-.82-.89V11.4h-.58Z"/><path class="cls-2" d="M70,12.73c0,.63.33,1.12.89,1.12a.75.75,0,0,0,.78-.5h.7a1.45,1.45,0,0,1-1.5,1.07,1.59,1.59,0,0,1-1.57-1.79c0-1.05.53-1.86,1.61-1.86a1.5,1.5,0,0,1,1.52,1.67,2.71,2.71,0,0,1,0,.29Zm1.72-.47c0-.53-.26-1-.82-1s-.82.4-.87,1Z"/><path class="cls-2" d="M78.94,12.38c0-.87,0-1.76,0-2.27h0c-.21.82-.9,2.73-1.42,4.22h-.65c-.39-1.23-1.1-3.39-1.32-4.23h0c0,.55,0,1.58,0,2.39v1.84h-.68V9.59H76c.5,1.41,1.09,3.22,1.25,3.85h0c.11-.5.82-2.47,1.34-3.85h1.06v4.74h-.72Z"/><path class="cls-2" d="M83.32,13.54a5.78,5.78,0,0,0,.05.79H82.7a1.64,1.64,0,0,1-.06-.42,1.24,1.24,0,0,1-2.23-.57c0-.78.62-1.14,1.65-1.14h.57v-.27c0-.29-.09-.63-.69-.63s-.63.26-.69.52h-.67c0-.52.37-1.06,1.38-1.05s1.36.35,1.36,1.15Zm-.68-.87h-.52c-.67,0-1,.18-1,.63a.57.57,0,0,0,.63.59c.78,0,.89-.53.89-1.12Z"/><path class="cls-2" d="M87.29,9.32v5h-.67a3.13,3.13,0,0,1,0-.46,1.08,1.08,0,0,1-1.07.55c-.89,0-1.45-.72-1.45-1.79s.6-1.86,1.57-1.86c.58,0,.86.23,1,.41V9.32ZM84.8,12.61c0,.79.36,1.23.89,1.23.77,0,.92-.59.92-1.29s-.14-1.2-.88-1.2S84.8,11.81,84.8,12.61Z"/><path class="cls-2" d="M88.73,12.73c0,.63.33,1.12.89,1.12a.75.75,0,0,0,.78-.5h.7a1.45,1.45,0,0,1-1.5,1.07A1.59,1.59,0,0,1,88,12.63c0-1.05.53-1.86,1.6-1.86a1.5,1.5,0,0,1,1.53,1.67,2.71,2.71,0,0,1,0,.29Zm1.72-.47c0-.53-.26-1-.82-1s-.82.4-.88,1Z"/><path class="cls-2" d="M93.57,9.32h.7v2a1.12,1.12,0,0,1,1.08-.54c.9,0,1.43.73,1.43,1.75s-.53,1.9-1.52,1.9a1,1,0,0,1-1-.51c0,.16,0,.33,0,.42h-.68c0-.38,0-.77,0-1.16Zm2.49,3.22c0-.71-.31-1.19-.89-1.19s-.93.46-.93,1.26.21,1.23.91,1.23S96.06,13.34,96.06,12.54Z"/><path class="cls-2" d="M97.88,10.85c.51,1.54.82,2.51.91,2.85h0c.11-.38.34-1.17.87-2.85h.7l-1.23,3.63c-.35,1-.61,1.28-1.36,1.28a3,3,0,0,1-.4,0v-.59h.28c.42,0,.59-.17.78-.7l-1.3-3.61Z"/><text class="cls-3" transform="translate(48.33 23.19)">Uno Network <tspan x="0" y="8">Offices inc. </tspan></text><polygon class="cls-2" points="19.53 8.71 15.92 8.71 15.92 17.63 14.77 17.63 14.77 8.71 11.22 8.71 11.22 20.65 19.53 20.65 19.53 8.71"/><path class="cls-2" d="M38.54,10.67a6.35,6.35,0,0,0-9.85,0v-2h-3.4l.07,5.12L23.64,8.71H20.33V20.65h3l-1.07.78H20.33V22.5a6.35,6.35,0,1,0,0,9.79v1.08H23.7V28.43l1.65,4.94h3.34V21.43H26.55l1.07-.78h1.07v-.79l.66-.49a6.35,6.35,0,0,0,9.19-8.7Zm-14.84,5L25,19.46l-1.25.92ZM19.53,27.4a3.25,3.25,0,0,1-3.25,3.25h0a3.25,3.25,0,1,1,1.66-6l-.56.41a2.62,2.62,0,1,0,1.53,2.38c0-.12,0-.23,0-.35l.55-.4a3.08,3.08,0,0,1,.09.75Zm5.83-.85-1.15-3.4,1.09-.8ZM36.81,14.68a3.19,3.19,0,0,1-3.19,3.19h0A3.14,3.14,0,0,1,32,17.43l.51-.37a2.62,2.62,0,0,0,2.21-4.76,2.68,2.68,0,0,0-1.11-.25A2.62,2.62,0,0,0,31,14.68c0,.11,0,.22,0,.34l-.51.37a3.36,3.36,0,0,1-.08-.71,3.2,3.2,0,1,1,6.39,0Z"/><polygon class="cls-2" points="29.37 33.33 35.25 33.33 35.25 30.66 33 30.66 33 29.04 35.25 29.04 35.25 25.91 33 25.91 33 24.31 35.25 24.31 35.25 21.47 29.37 21.47 29.37 33.33"/><path class="cls-4" d="M145,21.81a3.86,3.86,0,0,0,5.39.78,2.93,2.93,0,0,0,.42-.37l2.31-2.31a3.85,3.85,0,0,0-5.45-5.44l-1.32,1.31"/><path class="cls-4" d="M148,20.27a3.85,3.85,0,0,0-5.39-.78,3.62,3.62,0,0,0-.42.36l-2.31,2.31a3.85,3.85,0,0,0,5.45,5.45l1.31-1.32"/></g></g></svg>