<svg width="14" height="10" viewBox="0 0 14 10" fill="none" xmlns="http://www.w3.org/2000/svg">
<path d="M11.6475 0.847291C13.1636 3.02475 13.9123 5.48086 13.6324 8.30841C13.6312 8.32037 13.6249 8.33136 13.6148 8.33857C12.4667 9.16208 11.3544 9.66186 10.2576 9.9933C10.2491 9.99583 10.24 9.99569 10.2315 9.9929C10.2231 9.99011 10.2157 9.9848 10.2105 9.97773C9.95711 9.63334 9.72689 9.27027 9.5252 8.889C9.51362 8.86654 9.52419 8.83949 9.54802 8.83064C9.91365 8.69607 10.2613 8.53478 10.5958 8.34381C10.6221 8.32873 10.6238 8.29185 10.5994 8.27415C10.5285 8.22268 10.4582 8.16859 10.3909 8.1145C10.3783 8.1045 10.3613 8.10253 10.3471 8.10925C8.17593 9.08865 5.79754 9.08865 3.60071 8.10925C3.58645 8.10302 3.5695 8.10515 3.55725 8.11499C3.49013 8.16908 3.41966 8.22268 3.34935 8.27415C3.32502 8.29185 3.32703 8.32873 3.35355 8.34381C3.68797 8.53117 4.03565 8.69607 4.40078 8.8313C4.42444 8.84015 4.43568 8.86654 4.42394 8.889C4.2266 9.27076 3.99638 9.63383 3.73831 9.97822C3.72707 9.99215 3.70861 9.99854 3.69116 9.9933C2.59962 9.66186 1.48728 9.16208 0.339201 8.33857C0.329636 8.33136 0.322757 8.31988 0.32175 8.30792C0.0878379 5.86213 0.564555 3.38569 2.3048 0.8468C2.309 0.840079 2.31537 0.834834 2.32275 0.831719C3.17903 0.447829 4.09639 0.165402 5.0552 0.00410896C5.07265 0.00148631 5.0901 0.00935426 5.09916 0.0244345C5.21763 0.229329 5.35304 0.492086 5.44466 0.706816C6.45531 0.556013 7.48174 0.556013 8.51354 0.706816C8.60516 0.496676 8.73587 0.229329 8.85383 0.0244345C8.85803 0.0169534 8.86455 0.0109599 8.87244 0.0073097C8.88034 0.00365953 8.88921 0.00253931 8.8978 0.00410896C9.85711 0.165894 10.7745 0.448321 11.6301 0.831719C11.6376 0.834834 11.6438 0.840079 11.6475 0.847291V0.847291ZM5.95846 5.49758C5.96903 4.77455 5.42939 4.17626 4.75198 4.17626C4.08012 4.17626 3.54568 4.7693 3.54568 5.49758C3.54568 6.22569 4.09069 6.81874 4.75198 6.81874C5.42402 6.81874 5.95846 6.22569 5.95846 5.49758V5.49758ZM10.4189 5.49758C10.4295 4.77455 9.88983 4.17626 9.21259 4.17626C8.54055 4.17626 8.00611 4.7693 8.00611 5.49758C8.00611 6.22569 8.55112 6.81874 9.21259 6.81874C9.88983 6.81874 10.4189 6.22569 10.4189 5.49758V5.49758Z" fill="black"/>
</svg>
