<svg width="14" height="12" viewBox="0 0 14 12" fill="none" xmlns="http://www.w3.org/2000/svg">
<g clip-path="url(#clip0_59_36)">
<path d="M1.74258 0.000671387L-0.000282288 2.10816V2.69832C-0.000282288 4.38415 2.84615 4.38415 2.84615 2.69832C2.84615 4.38415 5.57637 4.38415 5.57637 2.69832C5.57637 4.38415 8.4228 4.38415 8.4228 2.69832C8.4228 4.38415 11.1533 4.38415 11.1533 2.69832C11.1533 4.38415 13.9995 4.38415 13.9995 2.69832V2.10816L12.2569 0.000671387H1.74258ZM2.81745 3.70987C2.73022 3.8223 2.64299 3.90641 2.55605 3.9908C2.23668 4.24369 1.82981 4.35611 1.42322 4.35611C1.30701 4.35611 1.1908 4.35611 1.10385 4.32807V11.9994H12.8675V4.32807C12.7513 4.35611 12.664 4.35611 12.5478 4.35611C12.1412 4.35611 11.7346 4.24369 11.415 3.9908C11.328 3.90641 11.2408 3.82202 11.1539 3.70987C11.0664 3.8223 11.0081 3.90641 10.8922 3.9908C10.5725 4.24369 10.1662 4.35611 9.78834 4.35611C9.38203 4.35611 8.97515 4.24369 8.68449 3.9908C8.59754 3.90641 8.51031 3.82202 8.42308 3.70987C8.33586 3.8223 8.24891 3.90641 8.16168 3.9908C7.78435 4.27172 7.37748 4.38415 6.97089 4.38415C6.56429 4.38415 6.1577 4.27172 5.83805 4.01884C5.75083 3.93445 5.66388 3.85034 5.57665 3.73791C5.48943 3.85034 5.43146 3.93472 5.31525 4.01884C4.9956 4.27172 4.58901 4.38415 4.2114 4.38415C3.80481 4.38415 3.39822 4.27172 3.10783 4.01884C3.0206 3.93445 2.93366 3.85034 2.84643 3.73791L2.81745 3.70987V3.70987ZM4.38586 4.86189C5.05385 4.86189 5.34423 5.03066 5.69286 5.70494H8.27789C8.42337 5.03066 8.71375 4.86189 9.58518 4.86189C10.2529 4.86189 11.3857 5.48009 11.5602 6.35117L12.4316 9.63899C12.6058 10.482 12.1122 11.1 11.2408 11.1C10.6308 11.1 9.84658 10.7066 9.32406 9.63899H4.67624C4.15344 10.7347 3.36923 11.1 2.7592 11.1C1.88777 11.1 1.39395 10.4818 1.56841 9.63899L2.43984 6.35117C2.61401 5.48009 3.74684 4.86189 4.41484 4.86189H4.38586V4.86189ZM6.97089 6.0139L4.90866 8.12139H5.78009V9.18902H8.19095V8.1497H9.0621L6.97089 6.0139Z" fill="black"/>
</g>
<defs>
<clipPath id="clip0_59_36">
<rect width="14" height="12" fill="white"/>
</clipPath>
</defs>
</svg>
