<svg width="34" height="7" viewBox="0 0 34 7" fill="none" xmlns="http://www.w3.org/2000/svg">
<path d="M17.2382 6.51433H11.7481V6.44484L17.4654 6.21759L17.2382 6.51433Z" fill="white"/>
<path d="M33.9614 6.51433H28.4366L28.6433 6.23808L33.9614 6.44483V6.51433Z" fill="white"/>
<path d="M18.4721 6.92157C18.4015 6.92157 18.338 6.91218 18.282 6.89342C18.2257 6.87466 18.1812 6.84443 18.1482 6.80273C18.1152 6.76103 18.0985 6.70578 18.0985 6.63733V6.24503C18.0985 6.17658 18.1149 6.12133 18.1482 6.07964C18.1812 6.03794 18.2257 6.00771 18.282 5.98895C18.3383 5.97018 18.4005 5.9608 18.4689 5.9608C18.5454 5.9608 18.6118 5.97053 18.6677 5.98999C18.7236 6.00945 18.7678 6.03655 18.7997 6.0713C18.8317 6.10604 18.8477 6.1467 18.8477 6.19361C18.8477 6.21446 18.8414 6.2287 18.8286 6.236C18.8157 6.2433 18.798 6.24712 18.7747 6.24712C18.7549 6.24712 18.7382 6.24434 18.7243 6.23878C18.7104 6.23322 18.7028 6.22349 18.7018 6.20959C18.6972 6.17901 18.6868 6.15295 18.6705 6.13071C18.6542 6.10848 18.6298 6.0911 18.5975 6.07859C18.5652 6.06608 18.5235 6.05983 18.4724 6.05983C18.4005 6.05983 18.3449 6.07477 18.3049 6.10465C18.265 6.13454 18.2448 6.18145 18.2448 6.24469V6.63698C18.2448 6.70057 18.265 6.74713 18.3049 6.77702C18.3449 6.8069 18.4008 6.82184 18.4724 6.82184C18.544 6.82184 18.6003 6.8069 18.6409 6.77702C18.6816 6.74713 18.7018 6.70022 18.7018 6.63698V6.5039H18.495C18.4787 6.5039 18.4662 6.49904 18.4575 6.48966C18.4488 6.48027 18.4443 6.4695 18.4443 6.45838C18.4443 6.44726 18.4488 6.43684 18.4575 6.42711C18.4662 6.41738 18.4787 6.41286 18.495 6.41286H18.7973C18.8136 6.41286 18.8262 6.41669 18.8348 6.42468C18.8435 6.43267 18.848 6.44205 18.848 6.45352V6.63733C18.848 6.70613 18.8314 6.76103 18.7984 6.80273C18.7653 6.84443 18.7205 6.87466 18.6635 6.89342C18.6062 6.91253 18.5426 6.92157 18.4721 6.92157Z" fill="white"/>
<path d="M20.272 6.91393C20.2605 6.91393 20.2473 6.91184 20.2327 6.90802C20.2181 6.9042 20.2067 6.89864 20.198 6.89169C20.1893 6.88474 20.1848 6.87709 20.1848 6.86841C20.1848 6.86493 20.1855 6.86146 20.1865 6.85798L20.5427 5.99138C20.5472 5.97818 20.5583 5.9688 20.5757 5.96254C20.5931 5.95629 20.6115 5.95351 20.6313 5.95351C20.6521 5.95351 20.6712 5.95663 20.6886 5.96324C20.706 5.96984 20.7171 5.97922 20.7216 5.99138L21.076 6.85798C21.0785 6.86146 21.0795 6.86458 21.0795 6.86702C21.0795 6.8757 21.0746 6.88335 21.0649 6.8903C21.0552 6.89725 21.043 6.90281 21.0291 6.90732C21.0152 6.91184 21.002 6.91393 20.9892 6.91393C20.9763 6.91393 20.9655 6.91184 20.9562 6.90802C20.9468 6.9042 20.9405 6.89794 20.937 6.88926L20.8589 6.69502H20.4019L20.3272 6.88926C20.3238 6.89794 20.3172 6.9042 20.3071 6.90802C20.297 6.91184 20.2855 6.91393 20.272 6.91393ZM20.437 6.60502H20.8262L20.6316 6.11508L20.437 6.60502Z" fill="white"/>
<path d="M22.5198 6.91393C22.5024 6.91393 22.4858 6.9108 22.4705 6.9042C22.4548 6.8976 22.4468 6.88787 22.4468 6.87501V6.01501C22.4468 5.99486 22.4548 5.98131 22.4705 5.97332C22.4861 5.96567 22.5024 5.9615 22.5198 5.9615C22.5382 5.9615 22.5542 5.96393 22.5678 5.96915C22.581 5.97436 22.5931 5.982 22.6042 5.99208C22.6154 6.00216 22.6261 6.01501 22.6366 6.03065L22.9111 6.42295L23.1856 6.03065C23.197 6.01501 23.2085 6.00216 23.2196 5.99208C23.2307 5.982 23.2429 5.97436 23.2561 5.96915C23.2693 5.96393 23.2849 5.9615 23.3023 5.9615C23.3221 5.9615 23.3392 5.96532 23.3537 5.97332C23.3683 5.98131 23.3756 5.99521 23.3756 6.01501V6.87501C23.3756 6.88822 23.368 6.89795 23.3531 6.9042C23.3381 6.9108 23.3211 6.91393 23.3027 6.91393C23.2843 6.91393 23.2672 6.9108 23.2523 6.9042C23.2373 6.8976 23.2297 6.88787 23.2297 6.87501V6.19084L22.9656 6.5609C22.9576 6.57132 22.9489 6.57896 22.9396 6.58383C22.9302 6.58869 22.9204 6.59113 22.91 6.59113C22.902 6.59113 22.893 6.58904 22.8829 6.58452C22.8728 6.58001 22.8642 6.57236 22.8558 6.56124L22.5935 6.18597V6.87536C22.5935 6.88856 22.5858 6.89829 22.5709 6.90455C22.5553 6.9108 22.5386 6.91393 22.5198 6.91393Z" fill="white"/>
<path d="M24.9052 6.91392C24.8889 6.91392 24.8739 6.91079 24.86 6.90419C24.8461 6.89759 24.8392 6.88786 24.8392 6.875V6.00075C24.8392 5.98755 24.8461 5.97782 24.86 5.97157C24.8739 5.96531 24.8889 5.96184 24.9052 5.96184H25.5237C25.5421 5.96184 25.5553 5.96705 25.563 5.97747C25.5706 5.9879 25.5741 5.99867 25.5741 6.01014C25.5741 6.02334 25.5696 6.03481 25.5609 6.04523C25.5522 6.05566 25.5397 6.06087 25.5237 6.06087H24.9851V6.39201H25.2562C25.2725 6.39201 25.285 6.39688 25.2937 6.40626C25.3024 6.41599 25.3069 6.42676 25.3069 6.43892C25.3069 6.44934 25.3031 6.45942 25.2954 6.4688C25.2878 6.47853 25.2749 6.48305 25.2562 6.48305H24.9851V6.81523H25.5237C25.54 6.81523 25.5522 6.8201 25.5609 6.83018C25.5696 6.84025 25.5741 6.85207 25.5741 6.86597C25.5741 6.87743 25.5703 6.8882 25.563 6.89863C25.5553 6.90905 25.5425 6.91426 25.5237 6.91426H24.9052V6.91392Z" fill="white"/>
<path d="M27.2507 6.92435C27.1766 6.92435 27.1117 6.91601 27.0561 6.89899C27.0005 6.88196 26.9577 6.86215 26.9275 6.83922C26.8973 6.81629 26.8823 6.79544 26.8823 6.77737C26.8823 6.76868 26.8855 6.75965 26.8917 6.75061C26.898 6.74158 26.9063 6.73359 26.916 6.72733C26.9258 6.72073 26.9358 6.71761 26.9466 6.71761C26.9605 6.71761 26.9741 6.72282 26.9873 6.73324C27.0005 6.74367 27.0175 6.75617 27.0377 6.77042C27.0578 6.78467 27.0842 6.79718 27.1165 6.8076C27.1489 6.81803 27.1912 6.82324 27.2434 6.82324C27.292 6.82324 27.3344 6.81733 27.3702 6.80552C27.406 6.7937 27.4341 6.77598 27.4546 6.752C27.4748 6.72803 27.4852 6.6978 27.4852 6.66131C27.4852 6.62413 27.4748 6.59356 27.4539 6.56993C27.4331 6.54665 27.4056 6.52684 27.3712 6.51121C27.3372 6.49557 27.3 6.48167 27.26 6.46951C27.2201 6.45735 27.1794 6.44484 27.1384 6.43233C27.0974 6.41982 27.0599 6.40418 27.0262 6.38542C26.9925 6.36666 26.9654 6.34268 26.9445 6.31314C26.9237 6.28361 26.9133 6.24643 26.9133 6.20091C26.9133 6.15331 26.9247 6.1137 26.948 6.08242C26.9713 6.05115 27.0019 6.02648 27.0401 6.00806C27.0783 5.98965 27.1197 5.97714 27.1645 5.96949C27.209 5.9622 27.2527 5.95837 27.2955 5.95837C27.3268 5.95837 27.3598 5.96011 27.3945 5.96359C27.4293 5.96706 27.4623 5.97227 27.4935 5.97922C27.5248 5.98617 27.5502 5.99521 27.57 6.00598C27.5898 6.01675 27.5995 6.02961 27.5995 6.04455C27.5995 6.0515 27.5971 6.05949 27.5926 6.06852C27.5881 6.07756 27.5811 6.0859 27.5717 6.09319C27.5623 6.10049 27.5509 6.10431 27.537 6.10431C27.5241 6.10431 27.5085 6.10014 27.4901 6.0918C27.4713 6.08346 27.447 6.07547 27.4161 6.06713C27.3855 6.05879 27.3452 6.05462 27.2951 6.05462C27.2534 6.05462 27.2145 6.05914 27.1777 6.06783C27.1412 6.07652 27.1124 6.09076 27.0908 6.11092C27.0693 6.13107 27.0589 6.15748 27.0589 6.19049C27.0589 6.22176 27.0693 6.24747 27.0901 6.26728C27.111 6.28709 27.1381 6.30376 27.1718 6.31662C27.2055 6.32982 27.2423 6.34164 27.283 6.35241C27.3236 6.36318 27.3639 6.37569 27.4046 6.39028C27.4452 6.40453 27.4824 6.42225 27.5165 6.4431C27.5505 6.46395 27.5783 6.49105 27.5992 6.52441C27.62 6.55777 27.6305 6.59981 27.6305 6.6502C27.6305 6.71274 27.6141 6.76417 27.5811 6.80447C27.5481 6.84478 27.5033 6.87466 27.4463 6.89447C27.3903 6.91462 27.325 6.92435 27.2507 6.92435Z" fill="white"/>
<path d="M12.0299 1.06454L13.2923 1.2501L13.0101 3.30019L14.3396 1.12848L14.9907 2.49892L13.5869 3.61292L15.3764 4.63832L14.1081 5.17655L12.8711 4.09938L12.7363 5.10706L11.762 5.31554L12.0299 1.06454Z" fill="white"/>
<path d="M18.5728 1.63231L17.5999 1.1111L15.7583 5.0723H16.9397L17.1135 4.69008L18.6423 4.06463L19.0941 5.0723L19.9975 4.51635L18.5728 1.63231ZM17.5304 3.64766L17.9821 2.67473L18.2949 3.33493L17.5304 3.64766Z" fill="white"/>
<path d="M20.4047 1.07635L20.8359 2.46278L22.4896 2.32726L20.5785 4.86382L23.7405 5.10706L24.106 3.82731L22.3794 4.10563L24.1574 1.49332L20.4047 1.07635Z" fill="white"/>
<path d="M27.5672 1.64969L26.5943 1.12848L24.7527 5.08968H25.9341L26.1078 4.70746L27.6367 4.08201L28.0884 5.08968L28.9919 4.53373L27.5672 1.64969ZM26.5248 3.66504L26.9765 2.69211L27.2892 3.35231L26.5248 3.66504Z" fill="white"/>
<path d="M32.8384 1.12848C32.0034 2.38495 32.3005 3.5601 32.3005 3.5601L30.7577 1.06454L29.6166 1.36233C30.4398 2.89261 29.4981 5.05146 29.4981 5.05146L30.7032 5.23632C30.7032 5.23632 30.9078 4.48126 30.9078 3.17823L32.41 5.28045L33.3565 4.89892C32.7258 2.69177 34 1.45823 34 1.45823C34 1.45823 33.4472 1.33106 32.8384 1.12848Z" fill="white"/>
<path d="M8.47837 4.55108L8.55064 4.6376C8.68129 4.3975 8.72125 4.23558 8.73237 4.14662C8.65697 4.15913 8.50408 4.19666 8.38594 4.30333C8.3842 4.37873 8.38316 4.42773 8.37794 4.49827L8.47837 4.55108Z" fill="white"/>
<path d="M6.56726 1.84079L7.72296 4.2401L8.17746 4.41662C8.18753 4.27624 8.18788 4.20083 8.18649 4.08721C8.16981 4.10146 8.15557 4.1164 8.1448 4.13064C8.12707 4.02571 8.1441 3.94405 8.1785 3.88046C8.16391 3.67233 8.13298 3.52187 8.10414 3.42145C7.85987 3.43396 7.70698 3.7512 7.70698 3.7512C7.46931 3.2769 8.01415 3.26682 8.01415 3.26682C8.01415 3.26682 7.73929 3.20914 7.47834 3.51944C7.52421 2.79878 8.09267 3.07606 8.11943 3.08961C8.21916 3.00379 8.66635 2.66152 8.79666 3.31269C8.61319 3.11081 8.33104 3.20185 8.20039 3.2637C8.23479 3.24806 8.71396 3.04236 8.69797 3.6275C8.5364 3.39608 8.33417 3.41207 8.25495 3.42944C8.2949 3.52326 8.32375 3.62298 8.34425 3.72549C8.43702 3.67962 8.63717 3.67545 8.75288 3.80054L8.79492 3.86135C9.32655 3.46384 9.33837 4.17269 9.33837 4.17269C9.33837 4.17269 9.23864 3.96386 8.94677 3.99513C9.08958 3.99965 9.27617 4.12578 9.16706 4.52989C9.12711 4.30855 8.92522 4.19944 8.82932 4.15949C8.80673 4.42252 8.7501 4.62858 8.67921 4.79154L8.82584 4.96701L8.90785 5.065C9.35123 4.61989 9.62504 4.0066 9.62504 3.32867C9.62504 1.9697 8.52354 0.86821 7.16457 0.86821C6.74586 0.86821 6.35148 0.973147 6.00644 1.15766L6.15029 1.56281L6.56726 1.84079Z" fill="white"/>
<path d="M8.68963 3.93988C8.5972 3.91799 8.4815 3.93745 8.3783 3.97741C8.38177 4.02084 8.3842 4.06462 8.38559 4.10806C8.45439 3.97984 8.57809 3.9166 8.68963 3.93988Z" fill="white"/>
<path d="M3.94453 5.57266L5.31635 4.30786L4.23918 3.33493L3.301 4.34261L2.57131 3.54341L1.77212 3.99513L0 6.70543H2.3934L3.00635 5.57266H3.94453Z" fill="white"/>
<path d="M8.26989 4.79431L7.54089 4.48506L7.34839 4.13064L6.70625 3.96037L7.38452 5.43505L7.88767 5.66995L8.51347 6.70542H9.86827L8.26989 4.79431Z" fill="white"/>
<path d="M7.38452 5.43505L6.70625 3.96037L6.15029 4.65532L5.31635 4.30785L3.94453 5.57265H3.00635L2.3934 6.70542H4.56998L5.31635 5.66995L5.89594 5.88538L6.45885 5.7728L6.93419 6.41076L7.75979 6.27316L8.04924 6.70542H8.51347L7.88766 5.66995L7.38452 5.43505Z" fill="white"/>
<path d="M6.93419 6.41077L6.45885 5.7728L5.89594 5.88539L5.31635 5.66995L4.56998 6.70543H8.04924L7.75979 6.27317L6.93419 6.41077Z" fill="white"/>
<path d="M4.23919 2.8832L5.4206 3.99512L4.56999 1.61979L4.09464 1.75739L3.82222 0.763611L2.7798 3.30017L3.30101 3.92563L4.23919 2.8832Z" fill="white"/>
<path d="M5.45361 2.57048L6.0808 4.2731L6.60202 3.6129L6.2733 2.89711L5.45361 2.57048Z" fill="white"/>
<path d="M4.56998 1.61981L5.4206 3.99514L6.0808 4.27312L5.45361 2.57049L6.2733 2.89712L6.60201 3.61292L7.19272 3.8214L6.35878 2.08403L5.94181 1.80605L5.55959 0.728882L4.27394 0.937366L3.82222 0.763629L4.09464 1.75741L4.56998 1.61981Z" fill="white"/>
</svg>
