<svg width="34" height="21" viewBox="0 0 34 21" fill="none" xmlns="http://www.w3.org/2000/svg">
<path d="M29.2112 13.4229L29.4603 13.7265C29.9104 12.884 30.0481 12.3158 30.0864 12.0036C29.8266 12.0475 29.2998 12.1792 28.8928 12.5535C28.8868 12.8181 28.8832 12.99 28.8653 13.2376L29.2112 13.4229Z" fill="white"/>
<path d="M22.6268 3.90516L26.6086 12.3319L28.1745 12.9518C28.2092 12.4588 28.2104 12.194 28.2056 11.7949C28.1482 11.8449 28.0991 11.8974 28.062 11.9475C28.0009 11.5789 28.0596 11.2921 28.1781 11.0688C28.1278 10.3378 28.0213 9.80935 27.9219 9.45666C27.0803 9.5006 26.5535 10.6148 26.5535 10.6148C25.7346 8.94899 27.6118 8.9136 27.6118 8.9136C27.6118 8.9136 26.6649 8.71101 25.7658 9.80081C25.9238 7.26974 27.8824 8.24361 27.9746 8.2912C28.3182 7.98977 29.8589 6.78769 30.3079 9.07468C29.6758 8.36564 28.7037 8.68538 28.2535 8.90261C28.372 8.8477 30.023 8.12523 29.9679 10.1803C29.4112 9.36758 28.7144 9.42371 28.4415 9.48473C28.5791 9.81423 28.6785 10.1645 28.7491 10.5245C29.0688 10.3634 29.7584 10.3488 30.157 10.7881L30.3019 11.0017C32.1336 9.60555 32.1743 12.0951 32.1743 12.0951C32.1743 12.0951 31.8307 11.3617 30.8251 11.4715C31.3171 11.4874 31.96 11.9304 31.5841 13.3497C31.4464 12.5723 30.7508 12.1891 30.4204 12.0487C30.3426 12.9726 30.1475 13.6963 29.9032 14.2686L30.4084 14.8849L30.691 15.2291C32.2186 13.6658 33.162 11.5118 33.162 9.13082C33.162 4.35792 29.3669 0.489319 24.6847 0.489319C23.2421 0.489319 21.8833 0.857872 20.6945 1.50589L21.1901 2.92886L22.6268 3.90516Z" fill="white"/>
<path d="M29.9391 11.2775C29.6207 11.2007 29.222 11.269 28.8664 11.4093C28.8784 11.5617 28.8868 11.7154 28.8916 11.8679C29.1286 11.4178 29.5548 11.1958 29.9391 11.2775Z" fill="white"/>
<path d="M13.5904 17.012L18.3169 12.5698L14.6056 9.15271L11.3732 12.6918L8.85915 9.88494L6.10563 11.4714L0 20.9904H8.24619L10.358 17.012H13.5904Z" fill="white"/>
<path d="M28.493 14.2785L25.9813 13.1923L25.318 11.9475L23.1056 11.3495L25.4425 16.5288L27.1761 17.3538L29.3322 20.9905H34L28.493 14.2785Z" fill="white"/>
<path d="M25.4425 16.5288L23.1056 11.3495L21.1901 13.7903L18.3169 12.5699L13.5904 17.0121H10.358L8.2462 20.9905H15.7453L18.3169 17.3538L20.3138 18.1104L22.2532 17.715L23.891 19.9557L26.7355 19.4724L27.7327 20.9905H29.3322L27.176 17.3538L25.4425 16.5288Z" fill="white"/>
<path d="M23.891 19.9555L22.2532 17.7149L20.3138 18.1103L18.3169 17.3537L15.7453 20.9904H27.7327L26.7355 19.4723L23.891 19.9555Z" fill="white"/>
<path d="M14.6057 7.56614L18.6761 11.4713L15.7454 3.12884L14.1076 3.61211L13.1691 0.121826L9.57751 9.03059L11.3733 11.2273L14.6057 7.56614Z" fill="white"/>
<path d="M18.7898 6.46783L20.9507 12.4477L22.7465 10.129L21.614 7.61499L18.7898 6.46783Z" fill="white"/>
<path d="M15.7453 3.12905L18.676 11.4716L20.9507 12.4479L18.7898 6.46801L21.6139 7.61517L22.7464 10.1291L24.7817 10.8614L21.9084 4.75948L20.4718 3.78318L19.1549 0L14.7253 0.732228L13.169 0.122038L14.1076 3.61232L15.7453 3.12905Z" fill="white"/>
</svg>
