<svg width="16" height="16" viewBox="0 0 16 16" fill="none" xmlns="http://www.w3.org/2000/svg">
<g clip-path="url(#clip0_59_34)">
<path d="M0 1.85858C0 1.31985 0.180185 0.875407 0.54054 0.525251C0.900895 0.175078 1.36937 0 1.94595 0C2.51223 0 2.97039 0.172379 3.32046 0.51717C3.68082 0.872724 3.861 1.33601 3.861 1.90706C3.861 2.42423 3.68598 2.8552 3.33591 3.19999C2.97555 3.55554 2.50193 3.73332 1.91506 3.73332H1.89961C1.33333 3.73332 0.875166 3.55554 0.525096 3.19999C0.175027 2.84444 0 2.39729 0 1.85858ZM0.200772 15.9999V5.20402H3.62934V15.9999H0.200772ZM5.52896 15.9999H8.95753V9.97168C8.95753 9.59457 8.99872 9.30366 9.08108 9.09896C9.22522 8.73263 9.44401 8.42286 9.73745 8.16967C10.0309 7.91647 10.399 7.78987 10.8417 7.78987C11.9949 7.78987 12.5714 8.60333 12.5714 10.2303V15.9999H16V9.81007C16 8.21546 15.6396 7.00604 14.9189 6.1818C14.1982 5.35756 13.2458 4.94544 12.0618 4.94544C10.7336 4.94544 9.69884 5.54342 8.95753 6.73937V6.77169H8.94208L8.95753 6.73937V5.20402H5.52896C5.54954 5.5488 5.55984 6.62084 5.55984 8.42017C5.55984 10.2195 5.54954 12.7461 5.52896 15.9999Z" fill="black"/>
</g>
<defs>
<clipPath id="clip0_59_34">
<rect width="16" height="16" fill="white"/>
</clipPath>
</defs>
</svg>
