<svg width="15" height="10" viewBox="0 0 15 10" fill="none" xmlns="http://www.w3.org/2000/svg">
<path d="M7.50928 9.91924L4.55878 9.86537C3.60348 9.84659 2.6458 9.88407 1.70923 9.68957C0.284483 9.39898 0.183549 7.97413 0.0779325 6.77895C-0.0675965 5.09868 -0.0112579 3.38791 0.263374 1.72167C0.418413 0.786729 1.02855 0.228845 1.97211 0.168137C5.15733 -0.0521829 8.36372 -0.0260727 11.5419 0.0767144C11.8775 0.0861371 12.2155 0.137638 12.5465 0.196261C14.1802 0.48218 14.22 2.09685 14.3259 3.4561C14.4316 4.82938 14.387 6.2097 14.1851 7.57363C14.0231 8.70292 13.7133 9.64994 12.4056 9.74136C10.7672 9.86091 9.16636 9.95715 7.52332 9.92651C7.5234 9.91924 7.51396 9.91924 7.50928 9.91924ZM5.77467 7.06019C7.00936 6.35241 8.2205 5.65642 9.44813 4.95338C8.21113 4.2456 7.0023 3.54961 5.77467 2.84657V7.06019Z" fill="black"/>
</svg>
